<?xml version="1.0" encoding="UTF-8"?>
<svg enable-background="new 0 0 2560 1600" version="1.1" viewBox="0 0 2560 1600" xml:space="preserve" xmlns="http://www.w3.org/2000/svg"><defs><filter id="a" color-interpolation-filters="sRGB"><feBlend in2="SourceGraphic" mode="multiply" result="blend"/></filter></defs><g filter="url(#a)"><g fill="none" stroke="url(#l)" stroke-width="14"><linearGradient id="l" x1="1280" x2="1280" y1="1362.7" y2="237.3" gradientUnits="userSpaceOnUse"><stop stop-color="#D0BB84" offset="0"/><stop stop-color="#C7AB68" offset=".0285"/><stop stop-color="#C1A055" offset=".0545"/><stop stop-color="#BF9C4E" offset=".0727"/><stop stop-color="#CFB878" offset=".1394"/><stop stop-color="#A08454" offset=".1483"/><stop stop-color="#795936" offset=".1569"/><stop stop-color="#5C3A20" offset=".1647"/><stop stop-color="#4B2713" offset=".1712"/><stop stop-color="#45200E" offset=".1758"/><stop stop-color="#45200E" offset=".2848"/><stop stop-color="#A36B17" offset=".3212"/><stop stop-color="#A36B17" offset=".3636"/><stop stop-color="#F0C757" offset=".3939"/><stop stop-color="#F3EFE4" offset=".4242"/><stop stop-color="#F3EFE4" offset=".4909"/><stop stop-color="#F3EFE4" offset=".5273"/><stop stop-color="#F0C757" offset=".5576"/><stop stop-color="#A16A11" offset=".5879"/><stop stop-color="#A16A11" offset=".6485"/><stop stop-color="#A26B12" offset=".6523"/><stop stop-color="#AF7819" offset=".7206"/><stop stop-color="#B37D1C" offset=".7818"/><stop stop-color="#BA8A2E" offset=".7859"/><stop stop-color="#C49E4A" offset=".7935"/><stop stop-color="#CBAD60" offset=".8017"/><stop stop-color="#D1B86F" offset=".8107"/><stop stop-color="#D4BE78" offset=".8212"/><stop stop-color="#D5C07B" offset=".8364"/><stop stop-color="#D5C07B" offset=".8727"/><stop stop-color="#B79A49" offset=".903"/><stop stop-color="#B79A49" offset=".9333"/><stop stop-color="#CBAC66" offset="1"/></linearGradient><path d="m658.15 241.37h-291.86c-68.151 0-108.65 33.092-121.49 99.263-12.842 66.178 23.705 138.77 109.63 217.79 52.097 40.991 43.208 60.5-26.668 58.521h-223.6v159.27h395.46c77.04-12.836 116.3-52.346 117.78-118.52 1.4816-66.172-37.779-134.32-117.78-204.45-44.695-37.039-35.314-54.568 28.149-52.595h292.22v375.57h174.08v-375.57h169.64v-159.27h-505.56z"/><path d="m1157.7 247.37v147.27h-169.64v375.57h-162.08v-375.57h-298.12c-3.2239-0.0994-6.356-0.1497-9.3111-0.1497-31.033 0-47.45 5.4456-51.665 17.138-4.2143 11.69 4.9503 26.364 28.839 46.173 39.286 34.447 68.944 68.814 88.142 102.14 18.983 32.952 28.247 65.794 27.535 97.612-0.7019 31.345-10.396 56.636-28.814 75.17-18.553 18.67-46.635 31.281-83.469 37.488h-388.96v-147.27h217.52c3.2311 0.0907 6.3762 0.1367 9.3499 0.1367 33.79 0 51.535-5.7988 55.846-18.249 4.4077-12.73-6.5704-28.931-34.552-50.98-42.141-38.776-72.553-76.402-90.39-111.83-17.576-34.914-23.379-68.639-17.247-100.24 6.1139-31.518 18.867-55.386 37.906-70.942 19.055-15.569 45.193-23.464 77.69-23.464h791.42m6-6h-797.42c-68.151 0-108.65 33.092-121.49 99.263-12.842 66.178 23.705 138.77 109.63 217.79 49.696 39.102 43.892 58.658-17.401 58.658-2.961 0-6.0464-0.0455-9.2664-0.1368h-223.6v159.27h395.46c77.04-12.836 116.3-52.346 117.78-118.52 1.4816-66.172-37.779-134.32-117.78-204.45-42.434-35.164-36.124-52.744 18.932-52.744 2.9342 0 6.0059 0.0499 9.217 0.1498h292.22v375.57h174.08v-375.57h169.64v-159.27h1e-4z"/><path d="m1858.9 776.21v-534.84h348.16c42.965 3.9527 78.522 15.064 106.67 33.335 28.149 18.276 48.15 43.706 60.002 76.299 10.863 39.51 15.307 69.14 13.334 88.892-1.9792 19.758-5.9263 38.277-11.852 55.558-5.9263 17.287-22.223 37.287-48.891 60.002-26.668 22.721-62.225 37.409-106.67 44.076h-167.41v176.67h-193.34v-1e-4zm193.34-401.5v98.522h134.82c7.1589 0 14.937-2.6505 23.334-7.9633 8.3916-5.3069 12.836-18.704 13.334-40.187-1.2385-20.493-6.2388-34.012-15.001-40.557-8.7676-6.5395-16.112-9.8152-22.038-9.8152h-134.45v1e-4z"/><path d="m2206.8 247.37c41.664 3.8667 76.547 14.756 103.68 32.367 26.837 17.424 46.198 42.013 57.549 73.092 10.569 38.495 14.971 67.586 13.085 86.469-1.9258 19.222-5.8145 37.461-11.558 54.21-5.5447 16.174-21.393 35.479-47.106 57.381-25.584 21.797-60.314 36.144-103.23 42.643h-172.96v176.67l-181.34-1e-4v-522.84h341.89m-160.54 231.86h140.82c8.2854 0 17.216-2.9921 26.541-8.8923 10.298-6.5126 15.573-21.271 16.126-45.119l0.0056-0.2507-0.0151-0.2504c-1.363-22.554-7.0542-37.274-17.403-45.005-9.929-7.4056-18.311-11.006-25.625-11.006l-134.45 1e-4h-6v110.52m160.82-237.86h-348.16v534.84h193.34v-176.67h167.41c44.446-6.6669 80.003-21.355 106.67-44.076 26.668-22.715 42.965-42.716 48.891-60.002 5.926-17.281 9.873-35.8 11.852-55.558 1.9734-19.752-2.4712-49.383-13.334-88.892-11.852-32.594-31.853-58.023-60.002-76.299-28.149-18.27-63.706-29.382-106.67-33.335zm-154.82 231.86v-98.523h134.45c5.9263 0 13.27 3.2758 22.038 9.8152 8.762 6.5455 13.762 20.065 15.001 40.557-0.4978 21.482-4.9424 34.88-13.334 40.187-8.3972 5.3129-16.175 7.9634-23.334 7.9634h-134.82v-1e-4z"/><polygon points="699.08 827.86 649.45 1059 575 827.86 414.99 827.86 351.29 1059 277.95 827.86 103.87 827.86 266.84 1362.7 440.92 1362.7 497.22 1136 565 1362.7 739.08 1362.7 873.16 827.86"/><path d="m865.47 833.86l-131.07 522.84h-164.93l-66.5-222.39-6.2842-21.016-5.2874 21.289-55.168 222.12h-164.94l-159.31-522.84h161.59l72.008 226.94 6.1233 19.298 5.38-19.518 62.492-226.71h151.07l73.107 226.96 6.8716 21.333 4.7056-21.913 48.614-226.38h161.54m7.6899-6.0001h-174.08l-49.632 231.12-74.447-231.12h-160.01l-63.706 231.12-73.336-231.12h-174.08l162.97 534.84h174.08l56.299-226.68 67.78 226.68h174.08l134.08-534.84z"/><path d="m2270.3 987.13h185.88v-159.27h-347.37c-68.151 0-108.65 33.092-121.49 99.263-12.842 66.177 23.705 138.77 109.63 217.79 52.097 40.991 43.208 60.5-26.668 58.521h-250.38l-40.002-51.113c41.483-9.873 73.336-23.456 95.559-40.742 22.223-17.281 37.779-38.763 46.669-64.447 8.8892-25.678 8.3914-62.225-1.4816-109.63-12.842-31.604-33.092-56.79-60.743-75.559-27.657-18.762-62.966-30.123-105.93-34.075h-348.16v512.69l-171.49-512.69h-265.57l-175.93 534.84h191.86l33.705-96.3h158.9l33.705 96.3h388.16v-176.67l169.64 176.67h473.35c77.04-12.836 116.3-52.346 117.78-118.52 1.4817-66.172-37.779-134.32-117.78-204.45-44.695-37.039-35.314-54.568 28.149-52.595zm-1244.9 171.12l76.67-211.86 70.744 211.86h-147.41zm731.88-106.49c-8.3973 5.3127-16.175 7.9633-23.334 7.9633h-134.82v-98.523h134.45c5.9263 0 13.27 3.2758 22.038 9.8152 8.7618 6.5455 13.762 20.065 15.001 40.557-0.4978 21.482-4.9424 34.88-13.334 40.187z"/><path d="m2450.1 833.86v147.27h-179.78c-3.228-0.0994-6.3604-0.1498-9.3123-0.1498-31.033 2e-4 -47.45 5.4457-51.665 17.138-4.2141 11.69 4.9504 26.364 28.839 46.173 39.286 34.447 68.944 68.814 88.142 102.14 18.983 32.952 28.247 65.794 27.535 97.612-0.7017 31.345-10.396 56.636-28.814 75.17-18.553 18.67-46.635 31.281-83.469 37.488h-470.3l-167.87-174.83-10.328-10.756v185.59h-181.34v-522.84h341.89c41.614 3.863 76.214 14.979 102.84 33.04 26.381 17.906 46.01 42.246 58.35 72.353 9.4984 45.864 10.028 81.493 1.5742 105.91-8.4613 24.448-23.494 45.197-44.682 61.673-21.441 16.678-52.82 30.015-93.265 39.641l-9.1027 2.1663 5.7667 7.3685 40.002 51.113 1.8018 2.3021h253.22c3.2266 0.0908 6.3723 0.1367 9.3518 0.1367 33.79 0 51.535-5.7988 55.846-18.249 4.4077-12.73-6.571-28.931-34.553-50.98-42.141-38.776-72.552-76.401-90.389-111.83-17.576-34.914-23.379-68.639-17.247-100.24 6.1139-31.518 18.867-55.386 37.906-70.942 19.055-15.569 45.193-23.463 77.69-23.463h341.37m-857.02 231.86h140.82c8.2855 0 17.216-2.9919 26.541-8.8923 10.298-6.5127 15.572-21.271 16.125-45.119l0.0057-0.2507-0.015-0.2502c-1.3633-22.554-7.0546-37.274-17.403-45.005-9.9294-7.4056-18.312-11.006-25.625-11.006h-140.45v110.52m-363.15-231.86l170.12 508.59 4.7643 14.243h-189.64l-32.299-92.282-1.406-4.0178h-167.41l-1.4061 4.0178-32.299 92.282h-179.31l171.99-522.84h256.9m-213.13 330.38h164.29l-2.6381-7.9005-70.743-211.86-5.4633-16.361-5.8699 16.22-76.67 211.86-2.9101 8.0418m1439.3-336.38h-347.37c-68.151 0-108.65 33.092-121.49 99.263-12.842 66.177 23.705 138.77 109.63 217.79 49.696 39.102 43.893 58.657-17.401 58.657-2.9609 0-6.0466-0.0454-9.2666-0.1367h-250.38l-40.002-51.113c41.483-9.873 73.336-23.456 95.56-40.742 22.223-17.281 37.779-38.763 46.668-64.447 8.8892-25.678 8.3916-62.225-1.4814-109.63-12.842-31.604-33.092-56.79-60.743-75.558-27.658-18.762-62.966-30.123-105.93-34.075h-348.16v512.69l-171.49-512.69h-265.57l-175.93 534.84h191.86l33.705-96.3h158.9l33.705 96.3h388.16v-176.67l169.64 176.67h473.35c77.04-12.836 116.3-52.346 117.78-118.52 1.4817-66.172-37.779-134.32-117.78-204.45-42.434-35.164-36.124-52.744 18.932-52.744 2.9343 0 6.0061 0.0499 9.2173 0.1498h185.88v-159.27zm-1430.7 330.38l76.67-211.86 70.744 211.86h-147.41zm573.73-98.522v-98.523h134.45c5.9263 0 13.27 3.2759 22.038 9.8152 8.7618 6.5454 13.762 20.065 15.001 40.557-0.4978 21.482-4.9424 34.88-13.334 40.187-8.3973 5.3129-16.175 7.9634-23.334 7.9634h-134.82z"/><path d="m1778.1 362.31c-24.449-41.119-59.888-72.228-106.31-93.338-46.42-21.11-101.61-31.665-165.56-31.665-48.149 0-91.238 5.9851-129.27 17.955-38.029 11.98-70.129 29.574-96.299 52.784-26.17 23.21-46.05 51.794-59.629 85.744-13.58 33.959-20.37 73.283-20.37 117.97 0 59.019 11.85 108.95 35.55 149.81 23.709 40.869 58.584 71.738 104.63 92.598 46.049 20.869 101.17 31.295 165.38 31.295 64.199 0 119.45-10.37 165.74-31.11 46.299-20.74 81.674-51.729 106.12-92.968 24.44-41.23 36.66-91.109 36.66-149.63 1e-4 -58.529-12.22-108.34-36.66-149.45zm-61.464 151.08c-1.0813 17.678-2.5967 34.282-4.5295 49.85-7.5146 29.607-21.314 56.73-39.882 79.873l-141.33-141.33v-199.97c83.129 9.1338 151.86 66.781 177.2 143.94 4.6665 21.373 7.5201 43.915 8.543 67.637zm-185.74 53.965l108.54 108.54c-30.433 24.417-67.753 40.578-108.54 45.06v-153.6zm-46.365 153.6c-40.789-4.4817-78.11-20.642-108.54-45.06l108.54-108.54v153.6zm0-419.14v199.97l-141.33 141.33c-20.239-25.226-34.806-55.181-41.752-87.925-1.5195-13.497-2.2893-27.426-2.2893-41.797 0-16.153 0.7739-31.439 2.3054-45.877 18.678-87.902 92.289-155.72 183.06-165.7z"/><path d="m1506.3 243.3c62.791 0 117.66 10.472 163.07 31.127 22.567 10.263 42.726 23.119 59.918 38.213 17.164 15.069 31.872 32.81 43.716 52.73 23.767 39.977 35.818 89.229 35.818 146.39 0 57.158-12.052 106.47-35.821 146.57-11.844 19.977-26.533 37.714-43.66 52.718-17.155 15.028-37.259 27.757-59.755 37.834-45.297 20.295-100.24 30.585-163.29 30.585-63.059 0-117.87-10.349-162.91-30.76-22.369-10.133-42.285-22.859-59.194-37.824-16.874-14.934-31.249-32.537-42.726-52.32-23.052-39.743-34.74-89.134-34.74-146.8 0-43.714 6.7091-82.656 19.941-115.74 13.167-32.917 32.694-61.004 58.04-83.483 25.412-22.538 57.079-39.882 94.119-51.55 37.268-11.731 80.154-17.678 127.47-17.678m166.48 408.78l4.1891-5.2212c19.574-24.396 33.374-52.036 41.018-82.152l0.0923-0.364 0.0463-0.3728c1.9517-15.718 3.4872-32.616 4.5641-50.222l0.0192-0.3121-0.0134-0.3125c-1.0314-23.916-3.9502-47.016-8.6755-68.658l-0.0656-0.3-0.0958-0.2919c-26.489-80.671-98.023-138.78-182.24-148.03l-6.6553-0.7313v209.15l1.7573 1.7573 141.33 141.33 4.7333 4.7333m-330-3e-4l4.7335-4.7335 141.33-141.33 1.7573-1.7573v-209.15l-6.6553 0.7313c-93.13 10.233-168.79 78.717-188.28 170.41l-0.0647 0.3046-0.0328 0.3096c-1.552 14.632-2.3389 30.28-2.3389 46.51 0 14.465 0.7828 28.754 2.327 42.468l0.0325 0.2891 0.0604 0.2847c6.9633 32.828 21.812 64.1 42.941 90.435l4.1892 5.221m147.82 75.564v-174.78l-10.243 10.243-108.54 108.54-4.7334 4.7333 5.2213 4.1892c32.195 25.831 70.801 41.857 111.64 46.344l6.6553 0.7313m34.365 0l6.6553-0.7313c40.842-4.4874 79.447-20.513 111.64-46.344l5.2212-4.1891-4.7334-4.7335-108.54-108.54-10.243-10.243v174.78m-18.663-490.35c-48.149 0-91.238 5.9851-129.27 17.955-38.029 11.98-70.129 29.574-96.299 52.784-26.17 23.21-46.05 51.794-59.629 85.744-13.58 33.959-20.37 73.283-20.37 117.97 0 59.019 11.85 108.95 35.55 149.81 23.709 40.869 58.584 71.738 104.63 92.598 46.049 20.869 101.17 31.295 165.38 31.295 64.199 0 119.45-10.37 165.74-31.11 46.299-20.74 81.674-51.729 106.12-92.968 24.44-41.23 36.66-91.109 36.66-149.63 0-58.529-12.22-108.34-36.66-149.45-24.449-41.119-59.888-72.228-106.31-93.338-46.42-21.11-101.61-31.665-165.56-31.665zm165.99 405.81l-141.33-141.33v-199.97c83.129 9.1338 151.86 66.781 177.2 143.94 4.6665 21.373 7.52 43.915 8.543 67.637-1.0813 17.678-2.5967 34.282-4.5295 49.85-7.5147 29.607-21.314 56.73-39.882 79.873zm-329.02-3e-4c-20.239-25.226-34.806-55.181-41.752-87.925-1.5195-13.497-2.2893-27.426-2.2893-41.797 0-16.153 0.7739-31.439 2.3054-45.877 18.678-87.902 92.289-155.72 183.06-165.7v199.97l-141.33 141.33zm141.33 77.845c-40.789-4.4817-78.11-20.642-108.54-45.06l108.54-108.54v153.6zm46.365 0v-153.6l108.54 108.54c-30.433 24.417-67.753 40.578-108.54 45.06z"/></g><g fill="none" stroke="url(#m)" stroke-width="9"><linearGradient id="m" x1="103.87" x2="2456.1" y1="800" y2="800" gradientUnits="userSpaceOnUse"><stop stop-color="#FFF6C5" offset="0"/><stop stop-color="#FFF6C5" offset=".0243"/><stop stop-color="#E6D9AC" offset=".0251"/><stop stop-color="#CBBA91" offset=".0263"/><stop stop-color="#B39E79" offset=".0277"/><stop stop-color="#A08866" offset=".0292"/><stop stop-color="#927758" offset=".031"/><stop stop-color="#876C4D" offset=".0332"/><stop stop-color="#826548" offset=".0362"/><stop stop-color="#806346" offset=".0448"/><stop stop-color="#806346" offset=".0466"/><stop stop-color="#806346" offset=".0578"/><stop stop-color="#92704E" offset=".0595"/><stop stop-color="#A57E56" offset=".0618"/><stop stop-color="#B3885C" offset=".0646"/><stop stop-color="#BB8D60" offset=".0681"/><stop stop-color="#BD8F61" offset=".0746"/><stop stop-color="#FFD4A6" offset=".1007"/><stop stop-color="#FFD4A6" offset=".1119"/><stop stop-color="#FACD9E" offset=".1124"/><stop stop-color="#E2B179" offset=".1149"/><stop stop-color="#CE985A" offset=".1175"/><stop stop-color="#BE8441" offset=".1204"/><stop stop-color="#B2742D" offset=".1235"/><stop stop-color="#A9691F" offset=".1272"/><stop stop-color="#A46317" offset=".1317"/><stop stop-color="#A26115" offset=".1399"/><stop stop-color="#A86C32" offset=".2146"/><stop stop-color="#AB6F36" offset=".2187"/><stop stop-color="#B37941" offset=".2224"/><stop stop-color="#C08A53" offset=".226"/><stop stop-color="#D3A26D" offset=".2295"/><stop stop-color="#ECC18E" offset=".2329"/><stop stop-color="#FFD9A8" offset=".2351"/><stop stop-color="#FFD9A8" offset=".2463"/><stop stop-color="#EBC594" offset=".252"/><stop stop-color="#B69261" offset=".2636"/><stop stop-color="#A78352" offset=".2668"/><stop stop-color="#A78352" offset=".2836"/><stop stop-color="#B18955" offset=".2857"/><stop stop-color="#D39D5E" offset=".2943"/><stop stop-color="#E8A964" offset=".3013"/><stop stop-color="#F0AE66" offset=".306"/><stop stop-color="#F1B370" offset=".3451"/><stop stop-color="#ECAE6A" offset=".3463"/><stop stop-color="#D4924A" offset=".3531"/><stop stop-color="#C27E33" offset=".3596"/><stop stop-color="#B87226" offset=".3658"/><stop stop-color="#B46E21" offset=".3713"/><stop stop-color="#93571B" offset=".3899"/><stop stop-color="#93571B" offset=".4067"/><stop stop-color="#9F6427" offset=".4083"/><stop stop-color="#C18649" offset=".4131"/><stop stop-color="#D99E61" offset=".4177"/><stop stop-color="#E8AD70" offset=".4219"/><stop stop-color="#EDB275" offset=".4254"/><stop stop-color="#FFFFF3" offset=".4459"/><stop stop-color="#FFFEF1" offset=".4703"/><stop stop-color="#FFFAE8" offset=".4841"/><stop stop-color="#FEF3DB" offset=".4951"/><stop stop-color="#FDE9C7" offset=".5048"/><stop stop-color="#FCDDAE" offset=".5135"/><stop stop-color="#FBCE8F" offset=".5214"/><stop stop-color="#FABE6F" offset=".528"/><stop stop-color="#FAC47C" offset=".5784"/><stop stop-color="#4E2100" offset=".7015"/><stop stop-color="#502301" offset=".724"/><stop stop-color="#572802" offset=".7321"/><stop stop-color="#603005" offset=".7369"/><stop stop-color="#6F3909" offset=".7558"/><stop stop-color="#793F0C" offset=".7794"/><stop stop-color="#7D410D" offset=".806"/><stop stop-color="#7F430E" offset=".822"/><stop stop-color="#874911" offset=".8309"/><stop stop-color="#955317" offset=".838"/><stop stop-color="#A9621E" offset=".8442"/><stop stop-color="#C27528" offset=".8498"/><stop stop-color="#E18D34" offset=".8549"/><stop stop-color="#F99F3E" offset=".8582"/><stop stop-color="#F99F3E" offset=".8662"/><stop stop-color="#F99F3E" offset=".8675"/><stop stop-color="#FBBF63" offset=".8778"/><stop stop-color="#FDD982" offset=".888"/><stop stop-color="#FFE994" offset=".8968"/><stop stop-color="#FFEF9B" offset=".903"/><stop stop-color="#F7CA70" offset=".9063"/><stop stop-color="#F0AA4B" offset=".9098"/><stop stop-color="#EB902E" offset=".9133"/><stop stop-color="#E77E1A" offset=".9168"/><stop stop-color="#E5740D" offset=".9202"/><stop stop-color="#E47009" offset=".9235"/><stop stop-color="#D66908" offset=".9255"/><stop stop-color="#B15706" offset=".9315"/><stop stop-color="#924804" offset=".9378"/><stop stop-color="#7A3C02" offset=".9443"/><stop stop-color="#693401" offset=".9513"/><stop stop-color="#5F2F00" offset=".9588"/><stop stop-color="#5C2D00" offset=".9683"/></linearGradient><path d="m658.15 241.37h-291.86c-68.151 0-108.65 33.092-121.49 99.263-12.842 66.178 23.705 138.77 109.63 217.79 52.097 40.991 43.208 60.5-26.668 58.521h-223.6v159.27h395.46c77.04-12.836 116.3-52.346 117.78-118.52 1.4816-66.172-37.779-134.32-117.78-204.45-44.695-37.039-35.314-54.568 28.149-52.595h292.22v375.57h174.08v-375.57h169.64v-159.27h-505.56z"/><path d="m1157.7 247.37v147.27h-169.64v375.57h-162.08v-375.57h-298.12c-3.2239-0.0994-6.356-0.1497-9.3111-0.1497-31.033 0-47.45 5.4456-51.665 17.138-4.2143 11.69 4.9503 26.364 28.839 46.173 39.286 34.447 68.944 68.814 88.142 102.14 18.983 32.952 28.247 65.794 27.535 97.612-0.7019 31.345-10.396 56.636-28.814 75.17-18.553 18.67-46.635 31.281-83.469 37.488h-388.96v-147.27h217.52c3.2311 0.0907 6.3762 0.1367 9.3499 0.1367 33.79 0 51.535-5.7988 55.846-18.249 4.4077-12.73-6.5704-28.931-34.552-50.98-42.141-38.776-72.553-76.402-90.39-111.83-17.576-34.914-23.379-68.639-17.247-100.24 6.1139-31.518 18.867-55.386 37.906-70.942 19.055-15.569 45.193-23.464 77.69-23.464h791.42m6-6h-797.42c-68.151 0-108.65 33.092-121.49 99.263-12.842 66.178 23.705 138.77 109.63 217.79 49.696 39.102 43.892 58.658-17.401 58.658-2.961 0-6.0464-0.0455-9.2664-0.1368h-223.6v159.27h395.46c77.04-12.836 116.3-52.346 117.78-118.52 1.4816-66.172-37.779-134.32-117.78-204.45-42.434-35.164-36.124-52.744 18.932-52.744 2.9342 0 6.0059 0.0499 9.217 0.1498h292.22v375.57h174.08v-375.57h169.64v-159.27h1e-4z"/><path d="m1858.9 776.21v-534.84h348.16c42.965 3.9527 78.522 15.064 106.67 33.335 28.149 18.276 48.15 43.706 60.002 76.299 10.863 39.51 15.307 69.14 13.334 88.892-1.9792 19.758-5.9263 38.277-11.852 55.558-5.9263 17.287-22.223 37.287-48.891 60.002-26.668 22.721-62.225 37.409-106.67 44.076h-167.41v176.67h-193.34v-1e-4zm193.34-401.5v98.522h134.82c7.1589 0 14.937-2.6505 23.334-7.9633 8.3916-5.3069 12.836-18.704 13.334-40.187-1.2385-20.493-6.2388-34.012-15.001-40.557-8.7676-6.5395-16.112-9.8152-22.038-9.8152h-134.45v1e-4z"/><path d="m2206.8 247.37c41.664 3.8667 76.547 14.756 103.68 32.367 26.837 17.424 46.198 42.013 57.549 73.092 10.569 38.495 14.971 67.586 13.085 86.469-1.9258 19.222-5.8145 37.461-11.558 54.21-5.5447 16.174-21.393 35.479-47.106 57.381-25.584 21.797-60.314 36.144-103.23 42.643h-172.96v176.67l-181.34-1e-4v-522.84h341.89m-160.54 231.86h140.82c8.2854 0 17.216-2.9921 26.541-8.8923 10.298-6.5126 15.573-21.271 16.126-45.119l0.0056-0.2507-0.0151-0.2504c-1.363-22.554-7.0542-37.274-17.403-45.005-9.929-7.4056-18.311-11.006-25.625-11.006l-134.45 1e-4h-6v110.52m160.82-237.86h-348.16v534.84h193.34v-176.67h167.41c44.446-6.6669 80.003-21.355 106.67-44.076 26.668-22.715 42.965-42.716 48.891-60.002 5.926-17.281 9.873-35.8 11.852-55.558 1.9734-19.752-2.4712-49.383-13.334-88.892-11.852-32.594-31.853-58.023-60.002-76.299-28.149-18.27-63.706-29.382-106.67-33.335zm-154.82 231.86v-98.523h134.45c5.9263 0 13.27 3.2758 22.038 9.8152 8.762 6.5455 13.762 20.065 15.001 40.557-0.4978 21.482-4.9424 34.88-13.334 40.187-8.3972 5.3129-16.175 7.9634-23.334 7.9634h-134.82v-1e-4z"/><polygon points="699.08 827.86 649.45 1059 575 827.86 414.99 827.86 351.29 1059 277.95 827.86 103.87 827.86 266.84 1362.7 440.92 1362.7 497.22 1136 565 1362.7 739.08 1362.7 873.16 827.86"/><path d="m865.47 833.86l-131.07 522.84h-164.93l-66.5-222.39-6.2842-21.016-5.2874 21.289-55.168 222.12h-164.94l-159.31-522.84h161.59l72.008 226.94 6.1233 19.298 5.38-19.518 62.492-226.71h151.07l73.107 226.96 6.8716 21.333 4.7056-21.913 48.614-226.38h161.54m7.6899-6.0001h-174.08l-49.632 231.12-74.447-231.12h-160.01l-63.706 231.12-73.336-231.12h-174.08l162.97 534.84h174.08l56.299-226.68 67.78 226.68h174.08l134.08-534.84z"/><path d="m2270.3 987.13h185.88v-159.27h-347.37c-68.151 0-108.65 33.092-121.49 99.263-12.842 66.177 23.705 138.77 109.63 217.79 52.097 40.991 43.208 60.5-26.668 58.521h-250.38l-40.002-51.113c41.483-9.873 73.336-23.456 95.559-40.742 22.223-17.281 37.779-38.763 46.669-64.447 8.8892-25.678 8.3914-62.225-1.4816-109.63-12.842-31.604-33.092-56.79-60.743-75.559-27.657-18.762-62.966-30.123-105.93-34.075h-348.16v512.69l-171.49-512.69h-265.57l-175.93 534.84h191.86l33.705-96.3h158.9l33.705 96.3h388.16v-176.67l169.64 176.67h473.35c77.04-12.836 116.3-52.346 117.78-118.52 1.4817-66.172-37.779-134.32-117.78-204.45-44.695-37.039-35.314-54.568 28.149-52.595zm-1244.9 171.12l76.67-211.86 70.744 211.86h-147.41zm731.88-106.49c-8.3973 5.3127-16.175 7.9633-23.334 7.9633h-134.82v-98.523h134.45c5.9263 0 13.27 3.2758 22.038 9.8152 8.7618 6.5455 13.762 20.065 15.001 40.557-0.4978 21.482-4.9424 34.88-13.334 40.187z"/><path d="m2450.1 833.86v147.27h-179.78c-3.228-0.0994-6.3604-0.1498-9.3123-0.1498-31.033 2e-4 -47.45 5.4457-51.665 17.138-4.2141 11.69 4.9504 26.364 28.839 46.173 39.286 34.447 68.944 68.814 88.142 102.14 18.983 32.952 28.247 65.794 27.535 97.612-0.7017 31.345-10.396 56.636-28.814 75.17-18.553 18.67-46.635 31.281-83.469 37.488h-470.3l-167.87-174.83-10.328-10.756v185.59h-181.34v-522.84h341.89c41.614 3.863 76.214 14.979 102.84 33.04 26.381 17.906 46.01 42.246 58.35 72.353 9.4984 45.864 10.028 81.493 1.5742 105.91-8.4613 24.448-23.494 45.197-44.682 61.673-21.441 16.678-52.82 30.015-93.265 39.641l-9.1027 2.1663 5.7667 7.3685 40.002 51.113 1.8018 2.3021h253.22c3.2266 0.0908 6.3723 0.1367 9.3518 0.1367 33.79 0 51.535-5.7988 55.846-18.249 4.4077-12.73-6.571-28.931-34.553-50.98-42.141-38.776-72.552-76.401-90.389-111.83-17.576-34.914-23.379-68.639-17.247-100.24 6.1139-31.518 18.867-55.386 37.906-70.942 19.055-15.569 45.193-23.463 77.69-23.463h341.37m-857.02 231.86h140.82c8.2855 0 17.216-2.9919 26.541-8.8923 10.298-6.5127 15.572-21.271 16.125-45.119l0.0057-0.2507-0.015-0.2502c-1.3633-22.554-7.0546-37.274-17.403-45.005-9.9294-7.4056-18.312-11.006-25.625-11.006h-140.45v110.52m-363.15-231.86l170.12 508.59 4.7643 14.243h-189.64l-32.299-92.282-1.406-4.0178h-167.41l-1.4061 4.0178-32.299 92.282h-179.31l171.99-522.84h256.9m-213.13 330.38h164.29l-2.6381-7.9005-70.743-211.86-5.4633-16.361-5.8699 16.22-76.67 211.86-2.9101 8.0418m1439.3-336.38h-347.37c-68.151 0-108.65 33.092-121.49 99.263-12.842 66.177 23.705 138.77 109.63 217.79 49.696 39.102 43.893 58.657-17.401 58.657-2.9609 0-6.0466-0.0454-9.2666-0.1367h-250.38l-40.002-51.113c41.483-9.873 73.336-23.456 95.56-40.742 22.223-17.281 37.779-38.763 46.668-64.447 8.8892-25.678 8.3916-62.225-1.4814-109.63-12.842-31.604-33.092-56.79-60.743-75.558-27.658-18.762-62.966-30.123-105.93-34.075h-348.16v512.69l-171.49-512.69h-265.57l-175.93 534.84h191.86l33.705-96.3h158.9l33.705 96.3h388.16v-176.67l169.64 176.67h473.35c77.04-12.836 116.3-52.346 117.78-118.52 1.4817-66.172-37.779-134.32-117.78-204.45-42.434-35.164-36.124-52.744 18.932-52.744 2.9343 0 6.0061 0.0499 9.2173 0.1498h185.88v-159.27zm-1430.7 330.38l76.67-211.86 70.744 211.86h-147.41zm573.73-98.522v-98.523h134.45c5.9263 0 13.27 3.2759 22.038 9.8152 8.7618 6.5454 13.762 20.065 15.001 40.557-0.4978 21.482-4.9424 34.88-13.334 40.187-8.3973 5.3129-16.175 7.9634-23.334 7.9634h-134.82z"/><path d="m1778.1 362.31c-24.449-41.119-59.888-72.228-106.31-93.338-46.42-21.11-101.61-31.665-165.56-31.665-48.149 0-91.238 5.9851-129.27 17.955-38.029 11.98-70.129 29.574-96.299 52.784-26.17 23.21-46.05 51.794-59.629 85.744-13.58 33.959-20.37 73.283-20.37 117.97 0 59.019 11.85 108.95 35.55 149.81 23.709 40.869 58.584 71.738 104.63 92.598 46.049 20.869 101.17 31.295 165.38 31.295 64.199 0 119.45-10.37 165.74-31.11 46.299-20.74 81.674-51.729 106.12-92.968 24.44-41.23 36.66-91.109 36.66-149.63 1e-4 -58.529-12.22-108.34-36.66-149.45zm-61.464 151.08c-1.0813 17.678-2.5967 34.282-4.5295 49.85-7.5146 29.607-21.314 56.73-39.882 79.873l-141.33-141.33v-199.97c83.129 9.1338 151.86 66.781 177.2 143.94 4.6665 21.373 7.5201 43.915 8.543 67.637zm-185.74 53.965l108.54 108.54c-30.433 24.417-67.753 40.578-108.54 45.06v-153.6zm-46.365 153.6c-40.789-4.4817-78.11-20.642-108.54-45.06l108.54-108.54v153.6zm0-419.14v199.97l-141.33 141.33c-20.239-25.226-34.806-55.181-41.752-87.925-1.5195-13.497-2.2893-27.426-2.2893-41.797 0-16.153 0.7739-31.439 2.3054-45.877 18.678-87.902 92.289-155.72 183.06-165.7z"/><path d="m1506.3 243.3c62.791 0 117.66 10.472 163.07 31.127 22.567 10.263 42.726 23.119 59.918 38.213 17.164 15.069 31.872 32.81 43.716 52.73 23.767 39.977 35.818 89.229 35.818 146.39 0 57.158-12.052 106.47-35.821 146.57-11.844 19.977-26.533 37.714-43.66 52.718-17.155 15.028-37.259 27.757-59.755 37.834-45.297 20.295-100.24 30.585-163.29 30.585-63.059 0-117.87-10.349-162.91-30.76-22.369-10.133-42.285-22.859-59.194-37.824-16.874-14.934-31.249-32.537-42.726-52.32-23.052-39.743-34.74-89.134-34.74-146.8 0-43.714 6.7091-82.656 19.941-115.74 13.167-32.917 32.694-61.004 58.04-83.483 25.412-22.538 57.079-39.882 94.119-51.55 37.268-11.731 80.154-17.678 127.47-17.678m166.48 408.78l4.1891-5.2212c19.574-24.396 33.374-52.036 41.018-82.152l0.0923-0.364 0.0463-0.3728c1.9517-15.718 3.4872-32.616 4.5641-50.222l0.0192-0.3121-0.0134-0.3125c-1.0314-23.916-3.9502-47.016-8.6755-68.658l-0.0656-0.3-0.0958-0.2919c-26.489-80.671-98.023-138.78-182.24-148.03l-6.6553-0.7313v209.15l1.7573 1.7573 141.33 141.33 4.7333 4.7333m-330-3e-4l4.7335-4.7335 141.33-141.33 1.7573-1.7573v-209.15l-6.6553 0.7313c-93.13 10.233-168.79 78.717-188.28 170.41l-0.0647 0.3046-0.0328 0.3096c-1.552 14.632-2.3389 30.28-2.3389 46.51 0 14.465 0.7828 28.754 2.327 42.468l0.0325 0.2891 0.0604 0.2847c6.9633 32.828 21.812 64.1 42.941 90.435l4.1892 5.221m147.82 75.564v-174.78l-10.243 10.243-108.54 108.54-4.7334 4.7333 5.2213 4.1892c32.195 25.831 70.801 41.857 111.64 46.344l6.6553 0.7313m34.365 0l6.6553-0.7313c40.842-4.4874 79.447-20.513 111.64-46.344l5.2212-4.1891-4.7334-4.7335-108.54-108.54-10.243-10.243v174.78m-18.663-490.35c-48.149 0-91.238 5.9851-129.27 17.955-38.029 11.98-70.129 29.574-96.299 52.784-26.17 23.21-46.05 51.794-59.629 85.744-13.58 33.959-20.37 73.283-20.37 117.97 0 59.019 11.85 108.95 35.55 149.81 23.709 40.869 58.584 71.738 104.63 92.598 46.049 20.869 101.17 31.295 165.38 31.295 64.199 0 119.45-10.37 165.74-31.11 46.299-20.74 81.674-51.729 106.12-92.968 24.44-41.23 36.66-91.109 36.66-149.63 0-58.529-12.22-108.34-36.66-149.45-24.449-41.119-59.888-72.228-106.31-93.338-46.42-21.11-101.61-31.665-165.56-31.665zm165.99 405.81l-141.33-141.33v-199.97c83.129 9.1338 151.86 66.781 177.2 143.94 4.6665 21.373 7.52 43.915 8.543 67.637-1.0813 17.678-2.5967 34.282-4.5295 49.85-7.5147 29.607-21.314 56.73-39.882 79.873zm-329.02-3e-4c-20.239-25.226-34.806-55.181-41.752-87.925-1.5195-13.497-2.2893-27.426-2.2893-41.797 0-16.153 0.7739-31.439 2.3054-45.877 18.678-87.902 92.289-155.72 183.06-165.7v199.97l-141.33 141.33zm141.33 77.845c-40.789-4.4817-78.11-20.642-108.54-45.06l108.54-108.54v153.6zm46.365 0v-153.6l108.54 108.54c-30.433 24.417-67.753 40.578-108.54 45.06z"/></g><linearGradient id="k" x1="633.94" x2="633.94" y1="776.21" y2="241.37" gradientUnits="userSpaceOnUse"><stop stop-color="#BA8B01" offset="0"/><stop stop-color="#CDAA37" offset=".0438"/><stop stop-color="#E8D886" offset=".1121"/><stop stop-color="#F8F4B8" offset=".1607"/><stop stop-color="#FFFFCB" offset=".1847"/><stop stop-color="#FFFFCB" offset=".2986"/><stop stop-color="#FDF9C1" offset=".3078"/><stop stop-color="#F5E6A0" offset=".3415"/><stop stop-color="#F0D989" offset=".374"/><stop stop-color="#EDD17B" offset=".4043"/><stop stop-color="#ECCE76" offset=".4303"/><stop stop-color="#A26F14" offset=".4892"/><stop stop-color="#A26F14" offset=".6051"/><stop stop-color="#A67418" offset=".6074"/><stop stop-color="#C19234" offset=".624"/><stop stop-color="#D4A848" offset=".6402"/><stop stop-color="#E0B654" offset=".6558"/><stop stop-color="#E4BA58" offset=".6699"/><stop stop-color="#D9A94D" offset=".6716"/><stop stop-color="#C38737" offset=".6756"/><stop stop-color="#B36F27" offset=".6793"/><stop stop-color="#A9601D" offset=".6828"/><stop stop-color="#A65B1A" offset=".6857"/><stop stop-color="#AA6222" offset=".6954"/><stop stop-color="#B57637" offset=".7104"/><stop stop-color="#C6965B" offset=".7287"/><stop stop-color="#DEC38B" offset=".7498"/><stop stop-color="#FDFCC9" offset=".7728"/><stop stop-color="#FFFFCD" offset=".7741"/><stop stop-color="#FFFFCD" offset=".7957"/><stop stop-color="#E5BD5D" offset=".8468"/><stop stop-color="#BB913B" offset=".8861"/><stop stop-color="#BB913B" offset=".9116"/><stop stop-color="#BE9337" offset=".9147"/><stop stop-color="#C39830" offset=".925"/><stop stop-color="#C5992E" offset=".9509"/><stop stop-color="#7F470A" offset="1"/></linearGradient><path d="m658.15 241.37h-291.86c-68.151 0-108.65 33.092-121.49 99.263-12.842 66.178 23.705 138.77 109.63 217.79 52.097 40.991 43.208 60.5-26.668 58.521h-223.6v159.27h395.46c77.04-12.836 116.3-52.346 117.78-118.52 1.4816-66.172-37.779-134.32-117.78-204.45-44.695-37.039-35.314-54.568 28.149-52.595h292.22v375.57h174.08v-375.57h169.64v-159.27h-505.56z" fill="url(#k)"/><linearGradient id="j" x1="104.16" x2="1163.7" y1="508.79" y2="508.79" gradientUnits="userSpaceOnUse"><stop stop-color="#D0BB84" offset="0"/><stop stop-color="#C7AB68" offset=".0285"/><stop stop-color="#C1A055" offset=".0545"/><stop stop-color="#BF9C4E" offset=".0727"/><stop stop-color="#CFB878" offset=".1394"/><stop stop-color="#A08454" offset=".1483"/><stop stop-color="#795936" offset=".1569"/><stop stop-color="#5C3A20" offset=".1647"/><stop stop-color="#4B2713" offset=".1712"/><stop stop-color="#45200E" offset=".1758"/><stop stop-color="#45200E" offset=".2848"/><stop stop-color="#A36B17" offset=".3212"/><stop stop-color="#A36B17" offset=".3636"/><stop stop-color="#F0C757" offset=".3939"/><stop stop-color="#F3EFE4" offset=".4242"/><stop stop-color="#F3EFE4" offset=".4909"/><stop stop-color="#F3EFE4" offset=".5273"/><stop stop-color="#F0C757" offset=".5576"/><stop stop-color="#A16A11" offset=".5879"/><stop stop-color="#A16A11" offset=".6485"/><stop stop-color="#A26B12" offset=".6523"/><stop stop-color="#AF7819" offset=".7206"/><stop stop-color="#B37D1C" offset=".7818"/><stop stop-color="#BA8A2E" offset=".7859"/><stop stop-color="#C49E4A" offset=".7935"/><stop stop-color="#CBAD60" offset=".8017"/><stop stop-color="#D1B86F" offset=".8107"/><stop stop-color="#D4BE78" offset=".8212"/><stop stop-color="#D5C07B" offset=".8364"/><stop stop-color="#D5C07B" offset=".8727"/><stop stop-color="#B79A49" offset=".903"/><stop stop-color="#B79A49" offset=".9333"/><stop stop-color="#CBAC66" offset="1"/></linearGradient><path d="m1157.7 247.37v147.27h-169.64v375.57h-162.08v-375.57h-298.12c-3.2239-0.0994-6.356-0.1497-9.3111-0.1497-31.033 0-47.45 5.4456-51.665 17.138-4.2143 11.69 4.9503 26.364 28.839 46.173 39.286 34.447 68.944 68.814 88.142 102.14 18.983 32.952 28.247 65.794 27.535 97.612-0.7019 31.345-10.396 56.636-28.814 75.17-18.553 18.67-46.635 31.281-83.469 37.488h-388.96v-147.27h217.52c3.2311 0.0907 6.3762 0.1367 9.3499 0.1367 33.79 0 51.535-5.7988 55.846-18.249 4.4077-12.73-6.5704-28.931-34.552-50.98-42.141-38.776-72.553-76.402-90.39-111.83-17.576-34.914-23.379-68.639-17.247-100.24 6.1139-31.518 18.867-55.386 37.906-70.942 19.055-15.569 45.193-23.464 77.69-23.464h791.42m6-6h-797.42c-68.151 0-108.65 33.092-121.49 99.263-12.842 66.178 23.705 138.77 109.63 217.79 49.696 39.102 43.892 58.658-17.401 58.658-2.961 0-6.0464-0.0455-9.2664-0.1368h-223.6v159.27h395.46c77.04-12.836 116.3-52.346 117.78-118.52 1.4816-66.172-37.779-134.32-117.78-204.45-42.434-35.164-36.124-52.744 18.932-52.744 2.9342 0 6.0059 0.0499 9.217 0.1498h292.22v375.57h174.08v-375.57h169.64v-159.27h1e-4z" fill="url(#j)"/><linearGradient id="i" x1="2123.2" x2="2123.2" y1="776.21" y2="241.37" gradientUnits="userSpaceOnUse"><stop stop-color="#BA8B01" offset="0"/><stop stop-color="#CDAA37" offset=".0438"/><stop stop-color="#E8D886" offset=".1121"/><stop stop-color="#F8F4B8" offset=".1607"/><stop stop-color="#FFFFCB" offset=".1847"/><stop stop-color="#FFFFCB" offset=".2986"/><stop stop-color="#FDF9C1" offset=".3078"/><stop stop-color="#F5E6A0" offset=".3415"/><stop stop-color="#F0D989" offset=".374"/><stop stop-color="#EDD17B" offset=".4043"/><stop stop-color="#ECCE76" offset=".4303"/><stop stop-color="#A26F14" offset=".4892"/><stop stop-color="#A26F14" offset=".6051"/><stop stop-color="#A67418" offset=".6074"/><stop stop-color="#C19234" offset=".624"/><stop stop-color="#D4A848" offset=".6402"/><stop stop-color="#E0B654" offset=".6558"/><stop stop-color="#E4BA58" offset=".6699"/><stop stop-color="#D9A94D" offset=".6716"/><stop stop-color="#C38737" offset=".6756"/><stop stop-color="#B36F27" offset=".6793"/><stop stop-color="#A9601D" offset=".6828"/><stop stop-color="#A65B1A" offset=".6857"/><stop stop-color="#AA6222" offset=".6954"/><stop stop-color="#B57637" offset=".7104"/><stop stop-color="#C6965B" offset=".7287"/><stop stop-color="#DEC38B" offset=".7498"/><stop stop-color="#FDFCC9" offset=".7728"/><stop stop-color="#FFFFCD" offset=".7741"/><stop stop-color="#FFFFCD" offset=".7957"/><stop stop-color="#E5BD5D" offset=".8468"/><stop stop-color="#BB913B" offset=".8861"/><stop stop-color="#BB913B" offset=".9116"/><stop stop-color="#BE9337" offset=".9147"/><stop stop-color="#C39830" offset=".925"/><stop stop-color="#C5992E" offset=".9509"/><stop stop-color="#7F470A" offset="1"/></linearGradient><path d="m1858.9 776.21v-534.84h348.16c42.965 3.9527 78.522 15.064 106.67 33.335 28.149 18.276 48.15 43.706 60.002 76.299 10.863 39.51 15.307 69.14 13.334 88.892-1.9792 19.758-5.9263 38.277-11.852 55.558-5.9263 17.287-22.223 37.287-48.891 60.002-26.668 22.721-62.225 37.409-106.67 44.076h-167.41v176.67h-193.34v-1e-4zm193.34-401.5v98.522h134.82c7.1589 0 14.937-2.6505 23.334-7.9633 8.3916-5.3069 12.836-18.704 13.334-40.187-1.2385-20.493-6.2388-34.012-15.001-40.557-8.7676-6.5395-16.112-9.8152-22.038-9.8152h-134.45v1e-4z" fill="url(#i)"/><linearGradient id="h" x1="1858.9" x2="2387.5" y1="508.79" y2="508.79" gradientUnits="userSpaceOnUse"><stop stop-color="#D0BB84" offset="0"/><stop stop-color="#C7AB68" offset=".0285"/><stop stop-color="#C1A055" offset=".0545"/><stop stop-color="#BF9C4E" offset=".0727"/><stop stop-color="#CFB878" offset=".1394"/><stop stop-color="#A08454" offset=".1483"/><stop stop-color="#795936" offset=".1569"/><stop stop-color="#5C3A20" offset=".1647"/><stop stop-color="#4B2713" offset=".1712"/><stop stop-color="#45200E" offset=".1758"/><stop stop-color="#45200E" offset=".2848"/><stop stop-color="#A36B17" offset=".3212"/><stop stop-color="#A36B17" offset=".3636"/><stop stop-color="#F0C757" offset=".3939"/><stop stop-color="#F3EFE4" offset=".4242"/><stop stop-color="#F3EFE4" offset=".4909"/><stop stop-color="#F3EFE4" offset=".5273"/><stop stop-color="#F0C757" offset=".5576"/><stop stop-color="#A16A11" offset=".5879"/><stop stop-color="#A16A11" offset=".6485"/><stop stop-color="#A26B12" offset=".6523"/><stop stop-color="#AF7819" offset=".7206"/><stop stop-color="#B37D1C" offset=".7818"/><stop stop-color="#BA8A2E" offset=".7859"/><stop stop-color="#C49E4A" offset=".7935"/><stop stop-color="#CBAD60" offset=".8017"/><stop stop-color="#D1B86F" offset=".8107"/><stop stop-color="#D4BE78" offset=".8212"/><stop stop-color="#D5C07B" offset=".8364"/><stop stop-color="#D5C07B" offset=".8727"/><stop stop-color="#B79A49" offset=".903"/><stop stop-color="#B79A49" offset=".9333"/><stop stop-color="#CBAC66" offset="1"/></linearGradient><path d="m2206.8 247.37c41.664 3.8667 76.547 14.756 103.68 32.367 26.837 17.424 46.198 42.013 57.549 73.092 10.569 38.495 14.971 67.586 13.085 86.469-1.9258 19.222-5.8145 37.461-11.558 54.21-5.5447 16.174-21.393 35.479-47.106 57.381-25.584 21.797-60.314 36.144-103.23 42.643h-172.96v176.67l-181.34-1e-4v-522.84h341.89m-160.54 231.86h140.82c8.2854 0 17.216-2.9921 26.541-8.8923 10.298-6.5126 15.573-21.271 16.126-45.119l0.0056-0.2507-0.0151-0.2504c-1.363-22.554-7.0542-37.274-17.403-45.005-9.929-7.4056-18.311-11.006-25.625-11.006l-134.45 1e-4h-6v110.52m160.82-237.86h-348.16v534.84h193.34v-176.67h167.41c44.446-6.6669 80.003-21.355 106.67-44.076 26.668-22.715 42.965-42.716 48.891-60.002 5.926-17.281 9.873-35.8 11.852-55.558 1.9734-19.752-2.4712-49.383-13.334-88.892-11.852-32.594-31.853-58.023-60.002-76.299-28.149-18.27-63.706-29.382-106.67-33.335zm-154.82 231.86v-98.523h134.45c5.9263 0 13.27 3.2758 22.038 9.8152 8.762 6.5455 13.762 20.065 15.001 40.557-0.4978 21.482-4.9424 34.88-13.334 40.187-8.3972 5.3129-16.175 7.9634-23.334 7.9634h-134.82v-1e-4z" fill="url(#h)"/><linearGradient id="g" x1="488.51" x2="488.51" y1="1362.7" y2="827.86" gradientUnits="userSpaceOnUse"><stop stop-color="#BA8B01" offset="0"/><stop stop-color="#CDAA37" offset=".0438"/><stop stop-color="#E8D886" offset=".1121"/><stop stop-color="#F8F4B8" offset=".1607"/><stop stop-color="#FFFFCB" offset=".1847"/><stop stop-color="#FFFFCB" offset=".2986"/><stop stop-color="#FDF9C1" offset=".3078"/><stop stop-color="#F5E6A0" offset=".3415"/><stop stop-color="#F0D989" offset=".374"/><stop stop-color="#EDD17B" offset=".4043"/><stop stop-color="#ECCE76" offset=".4303"/><stop stop-color="#A26F14" offset=".4892"/><stop stop-color="#A26F14" offset=".6051"/><stop stop-color="#A67418" offset=".6074"/><stop stop-color="#C19234" offset=".624"/><stop stop-color="#D4A848" offset=".6402"/><stop stop-color="#E0B654" offset=".6558"/><stop stop-color="#E4BA58" offset=".6699"/><stop stop-color="#D9A94D" offset=".6716"/><stop stop-color="#C38737" offset=".6756"/><stop stop-color="#B36F27" offset=".6793"/><stop stop-color="#A9601D" offset=".6828"/><stop stop-color="#A65B1A" offset=".6857"/><stop stop-color="#AA6222" offset=".6954"/><stop stop-color="#B57637" offset=".7104"/><stop stop-color="#C6965B" offset=".7287"/><stop stop-color="#DEC38B" offset=".7498"/><stop stop-color="#FDFCC9" offset=".7728"/><stop stop-color="#FFFFCD" offset=".7741"/><stop stop-color="#FFFFCD" offset=".7957"/><stop stop-color="#E5BD5D" offset=".8468"/><stop stop-color="#BB913B" offset=".8861"/><stop stop-color="#BB913B" offset=".9116"/><stop stop-color="#BE9337" offset=".9147"/><stop stop-color="#C39830" offset=".925"/><stop stop-color="#C5992E" offset=".9509"/><stop stop-color="#7F470A" offset="1"/></linearGradient><polygon points="699.08 827.86 649.45 1059 575 827.86 414.99 827.86 351.29 1059 277.95 827.86 103.87 827.86 266.84 1362.7 440.92 1362.7 497.22 1136 565 1362.7 739.08 1362.7 873.16 827.86" fill="url(#g)"/><linearGradient id="f" x1="103.87" x2="873.16" y1="1095.3" y2="1095.3" gradientUnits="userSpaceOnUse"><stop stop-color="#D0BB84" offset="0"/><stop stop-color="#C7AB68" offset=".0285"/><stop stop-color="#C1A055" offset=".0545"/><stop stop-color="#BF9C4E" offset=".0727"/><stop stop-color="#CFB878" offset=".1394"/><stop stop-color="#A08454" offset=".1483"/><stop stop-color="#795936" offset=".1569"/><stop stop-color="#5C3A20" offset=".1647"/><stop stop-color="#4B2713" offset=".1712"/><stop stop-color="#45200E" offset=".1758"/><stop stop-color="#45200E" offset=".2848"/><stop stop-color="#A36B17" offset=".3212"/><stop stop-color="#A36B17" offset=".3636"/><stop stop-color="#F0C757" offset=".3939"/><stop stop-color="#F3EFE4" offset=".4242"/><stop stop-color="#F3EFE4" offset=".4909"/><stop stop-color="#F3EFE4" offset=".5273"/><stop stop-color="#F0C757" offset=".5576"/><stop stop-color="#A16A11" offset=".5879"/><stop stop-color="#A16A11" offset=".6485"/><stop stop-color="#A26B12" offset=".6523"/><stop stop-color="#AF7819" offset=".7206"/><stop stop-color="#B37D1C" offset=".7818"/><stop stop-color="#BA8A2E" offset=".7859"/><stop stop-color="#C49E4A" offset=".7935"/><stop stop-color="#CBAD60" offset=".8017"/><stop stop-color="#D1B86F" offset=".8107"/><stop stop-color="#D4BE78" offset=".8212"/><stop stop-color="#D5C07B" offset=".8364"/><stop stop-color="#D5C07B" offset=".8727"/><stop stop-color="#B79A49" offset=".903"/><stop stop-color="#B79A49" offset=".9333"/><stop stop-color="#CBAC66" offset="1"/></linearGradient><path d="m865.47 833.86l-131.07 522.84h-164.93l-66.5-222.39-6.2842-21.016-5.2874 21.289-55.168 222.12h-164.94l-159.31-522.84h161.59l72.008 226.94 6.1233 19.298 5.38-19.518 62.492-226.71h151.07l73.107 226.96 6.8716 21.333 4.7056-21.913 48.614-226.38h161.54m7.6899-6.0001h-174.08l-49.632 231.12-74.447-231.12h-160.01l-63.706 231.12-73.336-231.12h-174.08l162.97 534.84h174.08l56.299-226.68 67.78 226.68h174.08l134.08-534.84z" fill="url(#f)"/><linearGradient id="e" x1="1624.5" x2="1624.5" y1="1362.7" y2="827.86" gradientUnits="userSpaceOnUse"><stop stop-color="#BA8B01" offset="0"/><stop stop-color="#CDAA37" offset=".0438"/><stop stop-color="#E8D886" offset=".1121"/><stop stop-color="#F8F4B8" offset=".1607"/><stop stop-color="#FFFFCB" offset=".1847"/><stop stop-color="#FFFFCB" offset=".2986"/><stop stop-color="#FDF9C1" offset=".3078"/><stop stop-color="#F5E6A0" offset=".3415"/><stop stop-color="#F0D989" offset=".374"/><stop stop-color="#EDD17B" offset=".4043"/><stop stop-color="#ECCE76" offset=".4303"/><stop stop-color="#A26F14" offset=".4892"/><stop stop-color="#A26F14" offset=".6051"/><stop stop-color="#A67418" offset=".6074"/><stop stop-color="#C19234" offset=".624"/><stop stop-color="#D4A848" offset=".6402"/><stop stop-color="#E0B654" offset=".6558"/><stop stop-color="#E4BA58" offset=".6699"/><stop stop-color="#D9A94D" offset=".6716"/><stop stop-color="#C38737" offset=".6756"/><stop stop-color="#B36F27" offset=".6793"/><stop stop-color="#A9601D" offset=".6828"/><stop stop-color="#A65B1A" offset=".6857"/><stop stop-color="#AA6222" offset=".6954"/><stop stop-color="#B57637" offset=".7104"/><stop stop-color="#C6965B" offset=".7287"/><stop stop-color="#DEC38B" offset=".7498"/><stop stop-color="#FDFCC9" offset=".7728"/><stop stop-color="#FFFFCD" offset=".7741"/><stop stop-color="#FFFFCD" offset=".7957"/><stop stop-color="#E5BD5D" offset=".8468"/><stop stop-color="#BB913B" offset=".8861"/><stop stop-color="#BB913B" offset=".9116"/><stop stop-color="#BE9337" offset=".9147"/><stop stop-color="#C39830" offset=".925"/><stop stop-color="#C5992E" offset=".9509"/><stop stop-color="#7F470A" offset="1"/></linearGradient><path d="m2270.3 987.13h185.88v-159.27h-347.37c-68.151 0-108.65 33.092-121.49 99.263-12.842 66.177 23.705 138.77 109.63 217.79 52.097 40.991 43.208 60.5-26.668 58.521h-250.38l-40.002-51.113c41.483-9.873 73.336-23.456 95.559-40.742 22.223-17.281 37.779-38.763 46.669-64.447 8.8892-25.678 8.3914-62.225-1.4816-109.63-12.842-31.604-33.092-56.79-60.743-75.559-27.657-18.762-62.966-30.123-105.93-34.075h-348.16v512.69l-171.49-512.69h-265.57l-175.93 534.84h191.86l33.705-96.3h158.9l33.705 96.3h388.16v-176.67l169.64 176.67h473.35c77.04-12.836 116.3-52.346 117.78-118.52 1.4817-66.172-37.779-134.32-117.78-204.45-44.695-37.039-35.314-54.568 28.149-52.595zm-1244.9 171.12l76.67-211.86 70.744 211.86h-147.41zm731.88-106.49c-8.3973 5.3127-16.175 7.9633-23.334 7.9633h-134.82v-98.523h134.45c5.9263 0 13.27 3.2758 22.038 9.8152 8.7618 6.5455 13.762 20.065 15.001 40.557-0.4978 21.482-4.9424 34.88-13.334 40.187z" fill="url(#e)"/><linearGradient id="d" x1="792.79" x2="2456.1" y1="1095.3" y2="1095.3" gradientUnits="userSpaceOnUse"><stop stop-color="#D0BB84" offset="0"/><stop stop-color="#C7AB68" offset=".0285"/><stop stop-color="#C1A055" offset=".0545"/><stop stop-color="#BF9C4E" offset=".0727"/><stop stop-color="#CFB878" offset=".1394"/><stop stop-color="#A08454" offset=".1483"/><stop stop-color="#795936" offset=".1569"/><stop stop-color="#5C3A20" offset=".1647"/><stop stop-color="#4B2713" offset=".1712"/><stop stop-color="#45200E" offset=".1758"/><stop stop-color="#45200E" offset=".2848"/><stop stop-color="#A36B17" offset=".3212"/><stop stop-color="#A36B17" offset=".3636"/><stop stop-color="#F0C757" offset=".3939"/><stop stop-color="#F3EFE4" offset=".4242"/><stop stop-color="#F3EFE4" offset=".4909"/><stop stop-color="#F3EFE4" offset=".5273"/><stop stop-color="#F0C757" offset=".5576"/><stop stop-color="#A16A11" offset=".5879"/><stop stop-color="#A16A11" offset=".6485"/><stop stop-color="#A26B12" offset=".6523"/><stop stop-color="#AF7819" offset=".7206"/><stop stop-color="#B37D1C" offset=".7818"/><stop stop-color="#BA8A2E" offset=".7859"/><stop stop-color="#C49E4A" offset=".7935"/><stop stop-color="#CBAD60" offset=".8017"/><stop stop-color="#D1B86F" offset=".8107"/><stop stop-color="#D4BE78" offset=".8212"/><stop stop-color="#D5C07B" offset=".8364"/><stop stop-color="#D5C07B" offset=".8727"/><stop stop-color="#B79A49" offset=".903"/><stop stop-color="#B79A49" offset=".9333"/><stop stop-color="#CBAC66" offset="1"/></linearGradient><path d="m2450.1 833.86v147.27h-179.78c-3.228-0.0994-6.3604-0.1498-9.3123-0.1498-31.033 2e-4 -47.45 5.4457-51.665 17.138-4.2141 11.69 4.9504 26.364 28.839 46.173 39.286 34.447 68.944 68.814 88.142 102.14 18.983 32.952 28.247 65.794 27.535 97.612-0.7017 31.345-10.396 56.636-28.814 75.17-18.553 18.67-46.635 31.281-83.469 37.488h-470.3l-167.87-174.83-10.328-10.756v185.59h-181.34v-522.84h341.89c41.614 3.863 76.214 14.979 102.84 33.04 26.381 17.906 46.01 42.246 58.35 72.353 9.4984 45.864 10.028 81.493 1.5742 105.91-8.4613 24.448-23.494 45.197-44.682 61.673-21.441 16.678-52.82 30.015-93.265 39.641l-9.1027 2.1663 5.7667 7.3685 40.002 51.113 1.8018 2.3021h253.22c3.2266 0.0908 6.3723 0.1367 9.3518 0.1367 33.79 0 51.535-5.7988 55.846-18.249 4.4077-12.73-6.571-28.931-34.553-50.98-42.141-38.776-72.552-76.401-90.389-111.83-17.576-34.914-23.379-68.639-17.247-100.24 6.1139-31.518 18.867-55.386 37.906-70.942 19.055-15.569 45.193-23.463 77.69-23.463h341.37m-857.02 231.86h140.82c8.2855 0 17.216-2.9919 26.541-8.8923 10.298-6.5127 15.572-21.271 16.125-45.119l0.0057-0.2507-0.015-0.2502c-1.3633-22.554-7.0546-37.274-17.403-45.005-9.9294-7.4056-18.312-11.006-25.625-11.006h-140.45v110.52m-363.15-231.86l170.12 508.59 4.7643 14.243h-189.64l-32.299-92.282-1.406-4.0178h-167.41l-1.4061 4.0178-32.299 92.282h-179.31l171.99-522.84h256.9m-213.13 330.38h164.29l-2.6381-7.9005-70.743-211.86-5.4633-16.361-5.8699 16.22-76.67 211.86-2.9101 8.0418m1439.3-336.38h-347.37c-68.151 0-108.65 33.092-121.49 99.263-12.842 66.177 23.705 138.77 109.63 217.79 49.696 39.102 43.893 58.657-17.401 58.657-2.9609 0-6.0466-0.0454-9.2666-0.1367h-250.38l-40.002-51.113c41.483-9.873 73.336-23.456 95.56-40.742 22.223-17.281 37.779-38.763 46.668-64.447 8.8892-25.678 8.3916-62.225-1.4814-109.63-12.842-31.604-33.092-56.79-60.743-75.558-27.658-18.762-62.966-30.123-105.93-34.075h-348.16v512.69l-171.49-512.69h-265.57l-175.93 534.84h191.86l33.705-96.3h158.9l33.705 96.3h388.16v-176.67l169.64 176.67h473.35c77.04-12.836 116.3-52.346 117.78-118.52 1.4817-66.172-37.779-134.32-117.78-204.45-42.434-35.164-36.124-52.744 18.932-52.744 2.9343 0 6.0061 0.0499 9.2173 0.1498h185.88v-159.27zm-1430.7 330.38l76.67-211.86 70.744 211.86h-147.41zm573.73-98.522v-98.523h134.45c5.9263 0 13.27 3.2759 22.038 9.8152 8.7618 6.5454 13.762 20.065 15.001 40.557-0.4978 21.482-4.9424 34.88-13.334 40.187-8.3973 5.3129-16.175 7.9634-23.334 7.9634h-134.82z" fill="url(#d)"/><linearGradient id="c" x1="1507.8" x2="1507.8" y1="785.47" y2="237.3" gradientUnits="userSpaceOnUse"><stop stop-color="#BA8B01" offset="0"/><stop stop-color="#CDAA37" offset=".0438"/><stop stop-color="#E8D886" offset=".1121"/><stop stop-color="#F8F4B8" offset=".1607"/><stop stop-color="#FFFFCB" offset=".1847"/><stop stop-color="#FFFFCB" offset=".2986"/><stop stop-color="#FDF9C1" offset=".3078"/><stop stop-color="#F5E6A0" offset=".3415"/><stop stop-color="#F0D989" offset=".374"/><stop stop-color="#EDD17B" offset=".4043"/><stop stop-color="#ECCE76" offset=".4303"/><stop stop-color="#A26F14" offset=".4892"/><stop stop-color="#A26F14" offset=".6051"/><stop stop-color="#A67418" offset=".6074"/><stop stop-color="#C19234" offset=".624"/><stop stop-color="#D4A848" offset=".6402"/><stop stop-color="#E0B654" offset=".6558"/><stop stop-color="#E4BA58" offset=".6699"/><stop stop-color="#D9A94D" offset=".6716"/><stop stop-color="#C38737" offset=".6756"/><stop stop-color="#B36F27" offset=".6793"/><stop stop-color="#A9601D" offset=".6828"/><stop stop-color="#A65B1A" offset=".6857"/><stop stop-color="#AA6222" offset=".6954"/><stop stop-color="#B57637" offset=".7104"/><stop stop-color="#C6965B" offset=".7287"/><stop stop-color="#DEC38B" offset=".7498"/><stop stop-color="#FDFCC9" offset=".7728"/><stop stop-color="#FFFFCD" offset=".7741"/><stop stop-color="#FFFFCD" offset=".7957"/><stop stop-color="#E5BD5D" offset=".8468"/><stop stop-color="#BB913B" offset=".8861"/><stop stop-color="#BB913B" offset=".9116"/><stop stop-color="#BE9337" offset=".9147"/><stop stop-color="#C39830" offset=".925"/><stop stop-color="#C5992E" offset=".9509"/><stop stop-color="#7F470A" offset="1"/></linearGradient><path d="m1778.1 362.31c-24.449-41.119-59.888-72.228-106.31-93.338-46.42-21.11-101.61-31.665-165.56-31.665-48.149 0-91.238 5.9851-129.27 17.955-38.029 11.98-70.129 29.574-96.299 52.784-26.17 23.21-46.05 51.794-59.629 85.744-13.58 33.959-20.37 73.283-20.37 117.97 0 59.019 11.85 108.95 35.55 149.81 23.709 40.869 58.584 71.738 104.63 92.598 46.049 20.869 101.17 31.295 165.38 31.295 64.199 0 119.45-10.37 165.74-31.11 46.299-20.74 81.674-51.729 106.12-92.968 24.44-41.23 36.66-91.109 36.66-149.63 1e-4 -58.529-12.22-108.34-36.66-149.45zm-61.464 151.08c-1.0813 17.678-2.5967 34.282-4.5295 49.85-7.5146 29.607-21.314 56.73-39.882 79.873l-141.33-141.33v-199.97c83.129 9.1338 151.86 66.781 177.2 143.94 4.6665 21.373 7.5201 43.915 8.543 67.637zm-185.74 53.965l108.54 108.54c-30.433 24.417-67.753 40.578-108.54 45.06v-153.6zm-46.365 153.6c-40.789-4.4817-78.11-20.642-108.54-45.06l108.54-108.54v153.6zm0-419.14v199.97l-141.33 141.33c-20.239-25.226-34.806-55.181-41.752-87.925-1.5195-13.497-2.2893-27.426-2.2893-41.797 0-16.153 0.7739-31.439 2.3054-45.877 18.678-87.902 92.289-155.72 183.06-165.7z" fill="url(#c)"/><linearGradient id="b" x1="1200.7" x2="1814.8" y1="511.38" y2="511.38" gradientUnits="userSpaceOnUse"><stop stop-color="#D0BB84" offset="0"/><stop stop-color="#C7AB68" offset=".0285"/><stop stop-color="#C1A055" offset=".0545"/><stop stop-color="#BF9C4E" offset=".0727"/><stop stop-color="#CFB878" offset=".1394"/><stop stop-color="#A08454" offset=".1483"/><stop stop-color="#795936" offset=".1569"/><stop stop-color="#5C3A20" offset=".1647"/><stop stop-color="#4B2713" offset=".1712"/><stop stop-color="#45200E" offset=".1758"/><stop stop-color="#45200E" offset=".2848"/><stop stop-color="#A36B17" offset=".3212"/><stop stop-color="#A36B17" offset=".3636"/><stop stop-color="#F0C757" offset=".3939"/><stop stop-color="#F3EFE4" offset=".4242"/><stop stop-color="#F3EFE4" offset=".4909"/><stop stop-color="#F3EFE4" offset=".5273"/><stop stop-color="#F0C757" offset=".5576"/><stop stop-color="#A16A11" offset=".5879"/><stop stop-color="#A16A11" offset=".6485"/><stop stop-color="#A26B12" offset=".6523"/><stop stop-color="#AF7819" offset=".7206"/><stop stop-color="#B37D1C" offset=".7818"/><stop stop-color="#BA8A2E" offset=".7859"/><stop stop-color="#C49E4A" offset=".7935"/><stop stop-color="#CBAD60" offset=".8017"/><stop stop-color="#D1B86F" offset=".8107"/><stop stop-color="#D4BE78" offset=".8212"/><stop stop-color="#D5C07B" offset=".8364"/><stop stop-color="#D5C07B" offset=".8727"/><stop stop-color="#B79A49" offset=".903"/><stop stop-color="#B79A49" offset=".9333"/><stop stop-color="#CBAC66" offset="1"/></linearGradient><path d="m1506.3 243.3c62.791 0 117.66 10.472 163.07 31.127 22.567 10.263 42.726 23.119 59.918 38.213 17.164 15.069 31.872 32.81 43.716 52.73 23.767 39.977 35.818 89.229 35.818 146.39 0 57.158-12.052 106.47-35.821 146.57-11.844 19.977-26.533 37.714-43.66 52.718-17.155 15.028-37.259 27.757-59.755 37.834-45.297 20.295-100.24 30.585-163.29 30.585-63.059 0-117.87-10.349-162.91-30.76-22.369-10.133-42.285-22.859-59.194-37.824-16.874-14.934-31.249-32.537-42.726-52.32-23.052-39.743-34.74-89.134-34.74-146.8 0-43.714 6.7091-82.656 19.941-115.74 13.167-32.917 32.694-61.004 58.04-83.483 25.412-22.538 57.079-39.882 94.119-51.55 37.268-11.731 80.154-17.678 127.47-17.678m166.48 408.78l4.1891-5.2212c19.574-24.396 33.374-52.036 41.018-82.152l0.0923-0.364 0.0463-0.3728c1.9517-15.718 3.4872-32.616 4.5641-50.222l0.0192-0.3121-0.0134-0.3125c-1.0314-23.916-3.9502-47.016-8.6755-68.658l-0.0656-0.3-0.0958-0.2919c-26.489-80.671-98.023-138.78-182.24-148.03l-6.6553-0.7313v209.15l1.7573 1.7573 141.33 141.33 4.7333 4.7333m-330-3e-4l4.7335-4.7335 141.33-141.33 1.7573-1.7573v-209.15l-6.6553 0.7313c-93.13 10.233-168.79 78.717-188.28 170.41l-0.0647 0.3046-0.0328 0.3096c-1.552 14.632-2.3389 30.28-2.3389 46.51 0 14.465 0.7828 28.754 2.327 42.468l0.0325 0.2891 0.0604 0.2847c6.9633 32.828 21.812 64.1 42.941 90.435l4.1892 5.221m147.82 75.564v-174.78l-10.243 10.243-108.54 108.54-4.7334 4.7333 5.2213 4.1892c32.195 25.831 70.801 41.857 111.64 46.344l6.6553 0.7313m34.365 0l6.6553-0.7313c40.842-4.4874 79.447-20.513 111.64-46.344l5.2212-4.1891-4.7334-4.7335-108.54-108.54-10.243-10.243v174.78m-18.663-490.35c-48.149 0-91.238 5.9851-129.27 17.955-38.029 11.98-70.129 29.574-96.299 52.784-26.17 23.21-46.05 51.794-59.629 85.744-13.58 33.959-20.37 73.283-20.37 117.97 0 59.019 11.85 108.95 35.55 149.81 23.709 40.869 58.584 71.738 104.63 92.598 46.049 20.869 101.17 31.295 165.38 31.295 64.199 0 119.45-10.37 165.74-31.11 46.299-20.74 81.674-51.729 106.12-92.968 24.44-41.23 36.66-91.109 36.66-149.63 0-58.529-12.22-108.34-36.66-149.45-24.449-41.119-59.888-72.228-106.31-93.338-46.42-21.11-101.61-31.665-165.56-31.665zm165.99 405.81l-141.33-141.33v-199.97c83.129 9.1338 151.86 66.781 177.2 143.94 4.6665 21.373 7.52 43.915 8.543 67.637-1.0813 17.678-2.5967 34.282-4.5295 49.85-7.5147 29.607-21.314 56.73-39.882 79.873zm-329.02-3e-4c-20.239-25.226-34.806-55.181-41.752-87.925-1.5195-13.497-2.2893-27.426-2.2893-41.797 0-16.153 0.7739-31.439 2.3054-45.877 18.678-87.902 92.289-155.72 183.06-165.7v199.97l-141.33 141.33zm141.33 77.845c-40.789-4.4817-78.11-20.642-108.54-45.06l108.54-108.54v153.6zm46.365 0v-153.6l108.54 108.54c-30.433 24.417-67.753 40.578-108.54 45.06z" fill="url(#b)"/></g></svg>
